<svg width="800" height="800" viewBox="0 0 512 512" fill="none" xmlns="http://www.w3.org/2000/svg">
  <g transform="matrix(-1, 0, 0, 1, 512, 0)">
    <mask id="cutout-mask">
      <rect x="0" y="0" width="512" height="512" fill="white" />
      <rect x="150" y="6" width="40" height="230" fill="black" />
      <rect x="236" y="6" width="40" height="230" fill="black" />
      <rect x="322" y="6" width="40" height="230" fill="black" />
    </mask>
    <path 
      d="M96 368Q83 368 74 359 64 349 64 336L64 128Q64 114 74 105 83 96 96 96L416 96Q430 96 439 105 448 114 448 128L448 336Q448 349 439 359 430 368 416 368L256 368 160 464 160 368 96 368Z" 
      fill="#FFD700" 
      mask="url(#cutout-mask)" 
    />
  </g>
</svg>